<svg xmlns="http://www.w3.org/2000/svg" viewBox="0 0 446.1 164.07"><defs><style>.cls-1{isolation:isolate;}.cls-2{fill:#93c549;}.cls-10,.cls-3,.cls-9{fill:none;}.cls-3{stroke:#eae9e8;mix-blend-mode:soft-light;}.cls-11,.cls-3,.cls-9{stroke-miterlimit:10;stroke-width:2px;}.cls-4{fill:#989492;}.cls-5{fill:#686361;}.cls-6{fill:#c5c0bc;}.cls-11,.cls-7{fill:#eae9e8;}.cls-8{fill:#a3c9eb;}.cls-11,.cls-9{stroke:#fff;}</style></defs><g class="cls-1"><g id="Layer_2" data-name="Layer 2"><g id="Layer_1-2" data-name="Layer 1"><polygon class="cls-2" points="124.45 6.06 120.08 43.38 84.59 55.77 94.7 22.08 124.45 6.06"/><line class="cls-3" x1="86.67" y1="41.41" x2="122" y2="26.98"/><polygon class="cls-4" points="184.02 66.92 206.5 60.12 195.64 22.4 179.61 30.77 179.61 30.77 184.02 66.92 184.02 66.92"/><polygon class="cls-5" points="57.08 145.77 64.12 122.3 64.12 145.77 57.08 145.77"/><path class="cls-6" d="M.09,111.18c0-4.05,0-8.28-.09-12.06H7.73c.18,1.38.37,4.79.37,7.18A14.4,14.4,0,0,1,21.62,98c6.62,0,11.13,3.31,13,8.37C37.07,102,41.49,98,49.4,98c7.64,0,14.72,4.51,14.72,17.11v7.17l-7,23.47h-.87V116.05c0-5.33-1.93-11-9.2-11-7.64,0-10.95,5.71-10.95,14v26.77H28.15V116.33c0-6-1.66-11.32-9-11.32s-11,6.07-11,14.9v25.86h-8Z"/><path class="cls-5" d="M112.14,135.55a73.57,73.57,0,0,0,.64,10.22h-7.73a24.51,24.51,0,0,1-.73-6.08c-1.66,3-5.43,7.18-14.44,7.18-11,0-15.74-7.18-15.74-14.26,0-10.4,8.19-15.18,22.08-15.18h7.91v-4c0-4.14-1.28-9.11-10-9.11-7.73,0-9.11,3.86-9.94,7.45H76.35C77,105.38,81,98,94.38,98c11.41,0,17.76,4.69,17.76,15.27ZM104.23,123H96.68c-9.29,0-14.26,2.58-14.26,9.11,0,4.88,3.32,8.37,9.11,8.37,11.22,0,12.7-7.54,12.7-16Z"/><path class="cls-5" d="M126,164.07V110.53c0-3.86,0-7.82-.1-11.41h7.82a72.13,72.13,0,0,1,.28,7.36C136.61,101.7,141.3,98,149.3,98c10.76,0,18.58,9,18.58,23.18,0,16.75-8.92,25.67-20.23,25.67-7.55,0-11.5-3.13-13.62-6.9v24.1Zm21.16-59.15c-9.66,0-13.53,6.07-13.53,17.48,0,10.95,3.13,17.66,12.88,17.66,8.56,0,13.06-7,13.06-18.49C159.6,111.64,155.1,104.92,147.19,104.92Z"/><path class="cls-6" d="M221.55,112V78.24h8.1V106c2.3-4.14,6.62-8,14.53-8,7.46,0,15.73,4,15.73,17.94v29.81h-8.09V117.34c0-7.91-3.31-12.33-10.12-12.33-8.37,0-12,5.52-12,15.27v20.23Z"/><path class="cls-6" d="M307.84,135.55a71.56,71.56,0,0,0,.65,10.22h-7.73a23.9,23.9,0,0,1-.74-6.08c-1.65,3-5.43,7.18-14.44,7.18-11,0-15.73-7.18-15.73-14.26,0-10.4,8.19-15.18,22.08-15.18h7.91v-4c0-4.14-1.29-9.11-10-9.11-7.73,0-9.11,3.86-9.94,7.45h-7.81c.64-6.44,4.6-13.8,18-13.8,11.4,0,17.75,4.69,17.75,15.27ZM299.93,123h-7.54c-9.3,0-14.26,2.58-14.26,9.11,0,4.88,3.31,8.37,9.11,8.37,11.22,0,12.69-7.54,12.69-16Z"/><path class="cls-6" d="M360.55,78.24v54.37c0,4.32,0,8.65.09,13.16h-7.72a45.33,45.33,0,0,1-.46-6.63c-2.3,4.88-7,7.73-14.63,7.73-12.05,0-19.41-9.75-19.41-23.92,0-14.35,8-24.93,20.88-24.93,8.28,0,12,3.31,13.16,6V78.24Zm-21.07,61.82c10.86,0,13.34-8.09,13.34-18.31,0-10.39-2.2-16.92-12.69-16.92-8.28,0-13.34,6.53-13.34,17.84S332.12,140.06,339.48,140.06Z"/><path class="cls-6" d="M379,123.87c.09,9.48,4.88,16.28,12.79,16.28,7.36,0,9.75-3.86,11.22-7.26h8.19c-1.84,6-6.9,14-19.69,14-14.63,0-20.6-12-20.6-23.92,0-13.89,7-24.93,21.15-24.93,15.09,0,20,12,20,22,0,1.47,0,2.66-.09,3.86Zm24.84-5.61c-.09-7.73-4-13.89-11.87-13.89-8.28,0-11.87,5.7-12.69,13.89Z"/><path class="cls-6" d="M422.37,111.82c0-6.53-.09-10.21-.09-12.7h7.91c.09,1.29.27,5,.27,9.48,2.39-6.26,7.91-10.4,15.64-10.58v8c-9.56.28-15.64,5.34-15.64,17.11v22.64h-8.09Z"/><polygon class="cls-7" points="184.02 66.92 120.08 43.38 124.45 6.06 179.6 30.77 184.02 66.92"/><path class="cls-5" d="M195.59,146.82c-.59,0-1.2.05-1.82.05-12.05,0-18-6.07-19.22-14.44h8.09c1.29,5.06,5.06,8.09,11.41,8.09h.67l.87,6.31"/><path class="cls-5" d="M194.72,140.51c6.31-.19,8.8-3.07,8.8-7.16,0-4.42-2.11-6.44-11-8.56l-1-8c1,.29,2.14.59,3.43.9,14.16,3.4,17,8.09,17,15,0,7.75-5.85,13.52-16.31,14.12Z"/><path class="cls-5" d="M188.9,98.34a27.54,27.54,0,0,1,4.32-.32c12.05,0,17,7,17.57,13.43h-7.73c-.73-2.94-3-7.17-10.12-7.17a15,15,0,0,0-3.18.3Z"/><path class="cls-5" d="M191.45,116.81c-5.63-1.69-7.06-3.41-7.06-6.37,0-2.47,1.35-5,5.37-5.86l-.86-6.24c-8.83,1.38-12.51,7.06-12.51,12.74,0,6.35,2.75,10.49,16.09,13.71Z"/><polyline class="cls-5" points="229.65 140.51 221.55 112 221.55 145.77 229.65 145.77 229.65 140.51"/><polygon class="cls-8" points="206.5 60.12 184.02 66.92 179.6 30.77 179.61 30.77 195.64 22.4 206.5 60.12"/><line class="cls-9" x1="122" y1="26.98" x2="182.19" y2="51.93"/><polygon class="cls-10" points="124.45 6.06 120.08 43.38 184.02 66.92 179.61 30.77 179.6 30.77 124.45 6.06"/><polygon class="cls-6" points="212.64 63.38 196.83 68.53 212.64 63.38 212.64 63.38"/><polygon class="cls-6" points="198.75 15.14 189.74 19.85 198.75 15.14 198.75 15.14"/><polygon class="cls-6" points="120.08 43.38 119.48 48.49 184.7 72.49 184.02 66.92 120.08 43.38"/><polygon class="cls-4" points="189.74 19.85 178.96 25.47 178.96 25.47 178.96 25.47 189.74 19.85"/><line class="cls-3" x1="203.74" y1="44.41" x2="182.19" y2="51.93"/><rect class="cls-4" x="205.7" y="14.16" height="50.19" transform="translate(-2.83 58.44) rotate(-16.06)"/><polygon class="cls-4" points="184.7 72.49 184.7 72.49 196.83 68.53 184.7 72.49 184.7 72.49"/><polygon class="cls-4" points="198.75 15.14 189.74 19.85 178.96 25.47 178.96 25.47 179.61 30.77 179.61 30.77 195.64 22.4 206.5 60.12 184.02 66.92 184.02 66.92 184.7 72.49 184.7 72.49 196.83 68.53 212.64 63.38 198.75 15.14"/><polygon class="cls-4" points="84.59 55.77 94.7 22.08 124.45 6.06 125.16 0 90.5 18.66 76.95 63.85 119.48 48.49 120.08 43.38 84.59 55.77"/><line class="cls-9" x1="152.9" y1="17.49" x2="152.05" y2="36.49"/><path class="cls-11" d="M147.25,38.45c0-2.62,2.5-3.84,5.11-3.07a6.12,6.12,0,0,1,4.27,4.56,3.32,3.32,0,0,1-3.54,3.88C150.14,43.82,147.25,41.3,147.25,38.45Z"/><polygon class="cls-6" points="179.6 30.77 179.61 30.77 178.96 25.47 125.16 0 124.45 6.06 179.6 30.77"/></g></g></g></svg>